HIERARCHY
ROOT root
{
	OFFSET	0	13.1	24.9
	CHANNELS 6  Xposition Yposition Zposition Xrotation Yrotation Zrotation
	JOINT spine_1
	{
		OFFSET	0	9.99999	0
		CHANNELS 3  Xrotation Yrotation Zrotation
		JOINT spine_2
		{
			OFFSET	0	112	-10
			CHANNELS 3  Xrotation Yrotation Zrotation
			JOINT spine_3
			{
				OFFSET	0	206.5	19.3
				CHANNELS 3  Xrotation Yrotation Zrotation
				JOINT spine_4
				{
					OFFSET	0	110.4	14.6
					CHANNELS 3  Xrotation Yrotation Zrotation
					JOINT neck_1
					{
						OFFSET	0	71.8	-50.3
						CHANNELS 3  Xrotation Yrotation Zrotation
						JOINT neck_2
						{
							OFFSET	0	86.2	-25.8
							CHANNELS 3  Xrotation Yrotation Zrotation
							JOINT head_ee
							{
								OFFSET	0	179.8	-8.7
								CHANNELS 3  Xrotation Yrotation Zrotation
								End Site
								{
									OFFSET	1	0	0
								}
							}
						}
					}
					JOINT left_clavicle
					{
						OFFSET	-43.2	22.4	-70.8
						CHANNELS 3  Xrotation Yrotation Zrotation
						JOINT left_shoulder
						{
							OFFSET	-93.9	-5.79999	48.7
							CHANNELS 3  Xrotation Yrotation Zrotation
							JOINT left_elbow
							{
								OFFSET	-291.4	-30.8	15.2
								CHANNELS 3  Xrotation Yrotation Zrotation
								JOINT left_lowarm_twist
								{
									OFFSET	-110.7	-3.89999	13.6
									CHANNELS 3  Xrotation Yrotation Zrotation
									JOINT left_hand
									{
										OFFSET	-110.7	-3.89999	13.6
										CHANNELS 3  Xrotation Yrotation Zrotation
										JOINT left_ee
										{
											OFFSET	-80.8	-5.10001	12.1
											CHANNELS 3  Xrotation Yrotation Zrotation
											End Site
											{
												OFFSET	1	0	0
											}
										}
									}
								}
							}
						}
					}
					JOINT right_clavicle
					{
						OFFSET	43.2	22.4	-70.8
						CHANNELS 3  Xrotation Yrotation Zrotation
						JOINT right_shoulder
						{
							OFFSET	93.9	-5.79999	48.7
							CHANNELS 3  Xrotation Yrotation Zrotation
							JOINT right_elbow
							{
								OFFSET	291.4	-30.8	15.2
								CHANNELS 3  Xrotation Yrotation Zrotation
								JOINT right_lowarm_twist
								{
									OFFSET	110.7	-3.89999	13.6
									CHANNELS 3  Xrotation Yrotation Zrotation
									JOINT right_hand
									{
										OFFSET	110.7	-3.89999	13.6
										CHANNELS 3  Xrotation Yrotation Zrotation
										JOINT right_ee
										{
											OFFSET	80.8	-5.10001	12.1
											CHANNELS 3  Xrotation Yrotation Zrotation
											End Site
											{
												OFFSET	1	0	0
											}
										}
									}
								}
							}
						}
					}
				}
			}
		}
	}
	JOINT left_hip
	{
		OFFSET	-82.8	-127.5	0.300001
		CHANNELS 3  Xrotation Yrotation Zrotation
		JOINT left_knee
		{
			OFFSET	-28.2	-396.7	2.2
			CHANNELS 3  Xrotation Yrotation Zrotation
			JOINT left_ankle
			{
				OFFSET	-11.7	-411.3	35.4
				CHANNELS 3  Xrotation Yrotation Zrotation
				JOINT left_toes
				{
					OFFSET	0	-60	-88.6
					CHANNELS 3  Xrotation Yrotation Zrotation
					JOINT left_foot_ee
					{
						OFFSET	-22.5	-16.5	-42.2
						CHANNELS 3  Xrotation Yrotation Zrotation
						End Site
						{
							OFFSET	1	0	0
						}
					}
				}
			}
		}
	}
	JOINT right_hip
	{
		OFFSET	82.8	-127.5	0.300001
		CHANNELS 3  Xrotation Yrotation Zrotation
		JOINT right_knee
		{
			OFFSET	28.2	-396.7	2.2
			CHANNELS 3  Xrotation Yrotation Zrotation
			JOINT right_ankle
			{
				OFFSET	11.7	-411.3	35.4
				CHANNELS 3  Xrotation Yrotation Zrotation
				JOINT right_toes
				{
					OFFSET	0	-60	-88.6
					CHANNELS 3  Xrotation Yrotation Zrotation
					JOINT right_foot_ee
					{
						OFFSET	22.5	-16.5	-42.2
						CHANNELS 3  Xrotation Yrotation Zrotation
						End Site
						{
							OFFSET	1	0	0
						}
					}
				}
			}
		}
	}
}
MOTION
Frames: 5
Frame Time: 0.02
1372.05 701.618 -1475.22 -3.2841152687 20.4486774436 0.434865246673 -2.06853 -0.113644 0.819287 -2.06817 -0.165545 0.810396 -2.07028 -0.359346 0.744998 -2.07098 -0.237182 0.792397 2.01088 11.9443 -6.17383 2.93544 26.141 -6.03825 -0.0 0.0 -0.0 9.33694 13.2533 17.2865 1.43181 -24.1264 41.4384 2.41461 -50.0957 1.12854 -16.3144 -0.851226 1.89744 -1.26993 5.25793 -6.14241 -0.0 0.0 -0.0 11.5639 15.8208 -23.1723 -29.6764 35.0133 -53.1028 0.356408 10.0128 -0.0312219 -44.9 3.4867 -4.38996 -6.15831 -26.0427 25.0161 0.0 0.0 0.0 -0.0177938 -15.5893 12.2259 -19.036 0.305864 2.8918 40.4803 25.3721 -5.22624 39.8608 -0.0 -0.0 -0.0 0.0 -0.0 40.3374 45.5237 -13.0977 -2.61087 -0.0986597 -0.388502 -23.5393 -17.7344 -3.58571 -0.307815 0.0 0.0 0.0 0.0 0.0 
1336.44840048 707.05 -1541.19004935 -0.970593951107 26.2419487569 -1.31977583676 -2.96465 0.0631988 1.37067 -2.9636 -0.0241404 1.37192 -2.96299 -0.380667 1.31828 -2.96538 -0.167713 1.36184 2.07015 11.1518 -5.70518 2.86582 24.3567 -5.55492 -0.0 0.0 -0.0 9.71847 12.6028 18.0429 -2.35839 -21.4933 41.6201 2.10681 -46.2179 0.8991 -16.2814 -0.848971 1.89387 -0.992883 0.333128 -6.49794 -0.0 0.0 -0.0 11.7727 14.8501 -23.6844 -26.3711 37.591 -53.6035 0.409945 11.4794 -0.0412052 -46.9892 3.72322 -4.51624 -5.3992 -24.1041 21.8135 0.0 0.0 0.0 -0.557202 -13.3951 10.8346 -27.201 0.141058 4.13286 40.5965 25.9581 -5.25747 40.1274 -0.0 -0.0 -0.0 0.0 -0.0 38.4078 45.9802 -14.8877 -10.868 -0.292698 -1.6397 -21.0703 -18.1633 -3.21234 4.94489 -0.0 -0.0 0.0 0.0 0.0 
1337.5262422 707.05 -1541.76044971 -0.962999296133 25.3100131095 -1.33724011239 -2.96465 0.0631988 1.37067 -2.9636 -0.0241404 1.37192 -2.96299 -0.380667 1.31828 -2.96538 -0.167713 1.36184 2.07015 11.1518 -5.70518 2.86582 24.3567 -5.55492 -0.0 0.0 -0.0 9.71847 12.6028 18.0429 -2.35839 -21.4933 41.6201 2.10681 -46.2179 0.8991 -16.2814 -0.848971 1.89387 -0.992883 0.333128 -6.49794 -0.0 0.0 -0.0 11.7727 14.8501 -23.6844 -26.3711 37.591 -53.6035 0.409945 11.4794 -0.0412052 -46.9892 3.72322 -4.51624 -5.3992 -24.1041 21.8135 0.0 0.0 0.0 -0.557202 -13.3951 10.8346 -27.201 0.141058 4.13286 40.5965 25.9581 -5.25747 40.1274 -0.0 -0.0 -0.0 0.0 -0.0 38.4078 45.9802 -14.8877 -10.868 -0.292698 -1.6397 -21.0703 -18.1633 -3.21234 4.94489 -0.0 -0.0 0.0 0.0 0.0 
1338.33152803 707.05 -1542.17211683 -0.957605692773 24.6188519374 -1.35001924762 -2.96465 0.0631988 1.37067 -2.9636 -0.0241404 1.37192 -2.96299 -0.380667 1.31828 -2.96538 -0.167713 1.36184 2.07015 11.1518 -5.70518 2.86582 24.3567 -5.55492 -0.0 0.0 -0.0 9.71847 12.6028 18.0429 -2.35839 -21.4933 41.6201 2.10681 -46.2179 0.8991 -16.2814 -0.848971 1.89387 -0.992883 0.333128 -6.49794 -0.0 0.0 -0.0 11.7727 14.8501 -23.6844 -26.3711 37.591 -53.6035 0.409945 11.4794 -0.0412052 -46.9892 3.72322 -4.51624 -5.3992 -24.1041 21.8135 0.0 0.0 0.0 -0.557202 -13.3951 10.8346 -27.201 0.141058 4.13286 40.5965 25.9581 -5.25747 40.1274 -0.0 -0.0 -0.0 0.0 -0.0 38.4078 45.9802 -14.8877 -10.868 -0.292698 -1.6397 -21.0703 -18.1633 -3.21234 4.94489 -0.0 -0.0 0.0 0.0 0.0 
1303.43851164 707.82 -1589.7910564 1.97294462262 28.4901451133 -3.89897728932 -2.96739 0.170357 1.5955 -2.96598 0.068499 1.6031 -2.9623 -0.351423 1.56562 -2.9657 -0.0997856 1.60146 2.72389 9.16682 -3.77854 3.20452 19.215 -3.59967 -0.0 0.0 -0.0 9.28747 12.4627 17.2858 -7.74278 -19.5157 43.6067 1.92865 -43.6887 0.773201 -15.4179 -0.79064 1.79998 -0.595842 -5.45076 -6.34039 -0.0 0.0 -0.0 11.5275 12.7533 -23.1849 -23.4167 39.7391 -53.364 0.396052 11.1002 -0.0384851 -49.1316 3.97036 -4.63671 -4.41125 -21.5246 17.5051 0.0 0.0 0.0 -0.349663 -8.72313 10.1061 -35.5092 -0.206055 5.35943 40.7024 26.989 -5.30487 40.1731 -0.0 -0.0 -0.0 0.0 -0.0 36.4252 44.0287 -15.7502 -22.9499 -0.248954 -3.48955 -9.89948 -17.8576 -1.49476 12.7831 -0.0 -0.0 0.0 0.0 0.0 
